<mxfile host="app.diagrams.net" modified="2024-10-22T13:31:34.386Z" agent="Mozilla/5.0 (Windows NT 10.0; Win64; x64) AppleWebKit/537.36 (KHTML, like Gecko) Chrome/130.0.0.0 Safari/537.36" version="24.0.2" etag="1lQJ9IcQCJVHTlaOs1AR" type="github">
  <diagram name="Page-1" id="RP6RDS4ugQYO97XHrZh4">
    <mxGraphModel>
      <root>
        <mxCell id="0" />
        <mxCell id="1" parent="0" />
      </root>
    </mxGraphModel>
  </diagram>
</mxfile>
